<svg width="69" height="76" viewBox="0 0 69 76" fill="none" xmlns="http://www.w3.org/2000/svg">
<path d="M62.7273 5.73783H54.2382V2.04477C54.2116 1.51965 53.9839 1.02479 53.602 0.662497C53.2201 0.300204 52.7134 0.098175 52.1865 0.098175C51.6596 0.098175 51.1528 0.300204 50.771 0.662497C50.3891 1.02479 50.1613 1.51965 50.1348 2.04477V5.73783H18.7711V2.04477C18.7446 1.51965 18.5168 1.02479 18.135 0.662497C17.7531 0.300204 17.2463 0.098175 16.7194 0.098175C16.1925 0.098175 15.6858 0.300204 15.3039 0.662497C14.9221 1.02479 14.6943 1.51965 14.6677 2.04477V5.73783H6.27273C4.6091 5.73783 3.0136 6.39731 1.83724 7.57118C0.660875 8.74505 0 10.3372 0 11.9973V69.7406C0 71.4007 0.499999 72 1.5 73.5C2.67636 74.6739 4.6091 76 6.27273 76H62.7273C64.3909 76 66.3236 74.6739 67.5 73.5C68.5 72 69 71.4007 69 69.7406V11.9973C69 10.3372 68.3391 8.74505 67.1628 7.57118C65.9864 6.39731 64.3909 5.73783 62.7273 5.73783ZM67.1339 67.8106C67.1339 69.4707 66.473 71.0628 65.2966 72.2367C64.1203 73.4105 62.5248 74.07 60.8611 74.07H8.13364C6.47 74.07 4.87451 73.4105 3.69815 72.2367C2.52178 71.0628 1.86091 69.4707 1.86091 67.8106V23.838H67.1339V67.8106Z" fill="#2C3E50"/>
</svg>
