<svg width="20" height="20" viewBox="0 0 20 20" fill="none" xmlns="http://www.w3.org/2000/svg">
<path d="M12.5 11.6667V14.6667C12.5 15.3667 12.5 15.7168 12.3637 15.9842C12.2439 16.2194 12.0527 16.4106 11.8175 16.5304C11.5501 16.6667 11.2 16.6667 10.5 16.6667H6.16664C5.46657 16.6667 5.11654 16.6667 4.84915 16.5304C4.61395 16.4106 4.42272 16.2194 4.30288 15.9842C4.16664 15.7168 4.16664 15.3667 4.16664 14.6667V8.33334M15.8333 8.33334V16.6667M4.16664 13.3333H12.5M4.63145 4.07039L2.98238 7.36853C2.82264 7.688 2.74278 7.84773 2.76196 7.97758C2.77871 8.09096 2.84142 8.19243 2.93534 8.25812C3.0429 8.33334 3.22149 8.33334 3.57866 8.33334H16.4213C16.7785 8.33334 16.957 8.33334 17.0646 8.25812C17.1585 8.19243 17.2212 8.09096 17.238 7.97758C17.2572 7.84773 17.1773 7.688 17.0176 7.36853L15.3685 4.07039C15.2347 3.80284 15.1678 3.66906 15.068 3.57133C14.9798 3.4849 14.8734 3.41917 14.7567 3.37889C14.6246 3.33334 14.4751 3.33334 14.1759 3.33334H5.82402C5.52488 3.33334 5.37532 3.33334 5.24327 3.37889C5.1265 3.41917 5.02015 3.4849 4.9319 3.57133C4.83211 3.66907 4.76522 3.80284 4.63145 4.07039Z" stroke="#3C3B4E" stroke-width="1.5" stroke-linecap="round" stroke-linejoin="round"/>
</svg>
