<svg width="20" height="20" viewBox="0 0 20 20" fill="none" xmlns="http://www.w3.org/2000/svg">
<path d="M7.08317 2.5H9.59298C10.2045 2.5 10.5102 2.5 10.7979 2.56908C11.053 2.63032 11.2969 2.73133 11.5206 2.8684C11.7728 3.023 11.989 3.23919 12.4214 3.67157L17.0832 8.33333M6.29134 8.37484H6.29967M7.92632 5H6.9165C5.51637 5 4.81631 5 4.28153 5.27248C3.81112 5.51217 3.42867 5.89462 3.18899 6.36502C2.9165 6.8998 2.9165 7.59987 2.9165 9V10.0098C2.9165 10.6213 2.9165 10.927 2.98558 11.2147C3.04682 11.4698 3.14783 11.7137 3.2849 11.9374C3.43951 12.1897 3.6557 12.4059 4.08808 12.8382L6.75475 15.5049C7.74479 16.4949 8.23981 16.99 8.81063 17.1754C9.31274 17.3386 9.85361 17.3386 10.3557 17.1754C10.9265 16.99 11.4216 16.4949 12.4116 15.5049L13.4214 14.4951C14.4115 13.5051 14.9065 13.01 15.0919 12.4392C15.2551 11.9371 15.2551 11.3962 15.0919 10.8941C14.9065 10.3233 14.4115 9.82828 13.4214 8.83824L10.7547 6.17157C10.3224 5.73919 10.1062 5.523 9.85388 5.3684C9.6302 5.23133 9.38634 5.13032 9.13125 5.06908C8.84353 5 8.53779 5 7.92632 5ZM6.70801 8.37484C6.70801 8.60496 6.52146 8.7915 6.29134 8.7915C6.06122 8.7915 5.87467 8.60496 5.87467 8.37484C5.87467 8.14472 6.06122 7.95817 6.29134 7.95817C6.52146 7.95817 6.70801 8.14472 6.70801 8.37484Z" stroke="#3C3B4E" stroke-width="1.5" stroke-linecap="round" stroke-linejoin="round"/>
</svg>
